# xmcd
#
# Track frame offsets:
#  150
#  11049
#  22693
#  34100
#  44248
#  58131
#  68833
#  81819
#  95087
#  109150
#
# Disc length: 1654 seconds
#
# Revision: 0
# Processed by: cddbd v1.5.1PL2 Copyright (c) Steve Scherf et al.
# Submitted via: Collectorz.com_Music_Collector 6.9
#
DISCID=8306740a
DTITLE=George Jones - Classic Country
DYEAR=1900
DGENRE=
TTITLE0=Tender Years
TTITLE1=She Still Thinks I Still Care
TTITLE2=White Lightning
TTITLE3=Walk Through This Worlf With Me
TTITLE4=Golden Ring (with Tammy Wynette)
TTITLE5=Her Name Is
TTITLE6=WhenTheGrassGrows
TTITLE7=The Window Up
TTITLE8=Good Year For The Roses
TTITLE9=He Stopped Loving Her Today
EXTD=
EXTT0=
EXTT1=
EXTT2=
EXTT3=
EXTT4=
EXTT5=
EXTT6=
EXTT7=
EXTT8=
EXTT9=
PLAYORDER=
